<svg xmlns="http://www.w3.org/2000/svg" width="100" height="100" viewBox="0 0 100 100"><title>  piper_logo</title><desc>  Created with Sketch.</desc><g fill="#000"><path d="M50 42.1C45.6 42.1 42.1 45.6 42.1 50 42.1 53.8 44.8 57 48.4 57.7L48.4 100C48.9 100 49.5 100 50 100 50.5 100 51.1 100 51.6 100L51.6 57.7C55.2 57 57.9 53.8 57.9 50 57.9 45.6 54.4 42.1 50 42.1Z"/><path d="M100 50C100 22.4 77.6 0 50 0 22.4 0 0 22.4 0 50 0 76 19.8 97.3 45.1 99.8L45.1 99.8 45.1 99.7 45.1 99.7C45 79.4 32.7 63.7 27.6 58.1L27.6 58.1C27.6 58.1 25.5 55.6 26.7 52.6L36 29.1C36 29.1 37.7 24.8 41.5 24.8L50 24.8 58.5 24.8C62.3 24.8 64 29.1 64 29.1L73.3 52.6C74.5 55.6 72.4 58.1 72.4 58.1L72.4 58.1C67.3 63.7 55 79.4 54.9 99.7L54.9 99.8C80.2 97.3 100 76 100 50Z"/></g></svg>
